<svg width="512" height="512" viewBox="0 0 512 512" fill="none" xmlns="http://www.w3.org/2000/svg">
<path d="M438.435 0H73.565V461.373H289.607V512.001L330.9 495.946L372.193 512.001V461.373H438.436L438.435 0ZM320.028 467.533V461.374V440.124C320.369 440.186 320.714 440.229 321.055 440.285C321.396 440.341 321.736 440.396 322.078 440.445C322.666 440.53 323.256 440.603 323.848 440.671C324.258 440.719 324.666 440.768 325.078 440.808C325.59 440.857 326.104 440.89 326.619 440.926C327.098 440.959 327.575 440.999 328.057 441.021C328.495 441.041 328.934 441.043 329.373 441.054C329.882 441.066 330.387 441.093 330.898 441.093C331.411 441.093 331.918 441.067 332.428 441.054C332.865 441.044 333.302 441.041 333.738 441.021C334.222 440.999 334.7 440.959 335.181 440.926C335.693 440.891 336.205 440.857 336.716 440.809C337.13 440.769 337.539 440.72 337.95 440.672C338.54 440.604 339.129 440.532 339.716 440.447C340.059 440.397 340.4 440.342 340.741 440.287C341.083 440.231 341.428 440.188 341.768 440.126V461.376V467.533L330.898 463.307L320.028 467.533ZM348.1 405.332C347.578 405.69 347.047 406.031 346.508 406.354C346.336 406.457 346.159 406.556 345.985 406.655C345.54 406.911 345.089 407.153 344.633 407.384C344.473 407.465 344.315 407.552 344.152 407.63C343.595 407.9 343.029 408.148 342.459 408.383C342.249 408.469 342.037 408.551 341.825 408.633C341.33 408.824 340.83 409.003 340.326 409.166C340.176 409.215 340.028 409.267 339.877 409.314C339.288 409.496 338.693 409.655 338.093 409.8C337.892 409.849 337.691 409.895 337.49 409.94C336.872 410.077 336.251 410.201 335.623 410.298C335.564 410.307 335.505 410.316 335.448 410.325C334.804 410.421 334.154 410.491 333.501 410.547C333.324 410.562 333.145 410.575 332.967 410.588C332.28 410.634 331.592 410.666 330.899 410.666C330.206 410.666 329.518 410.635 328.831 410.588C328.653 410.576 328.474 410.563 328.297 410.547C327.646 410.492 326.998 410.422 326.356 410.326C326.294 410.317 326.231 410.307 326.169 410.298C325.543 410.201 324.924 410.077 324.308 409.941C324.106 409.896 323.904 409.85 323.705 409.801C323.107 409.656 322.512 409.498 321.924 409.316C321.771 409.268 321.621 409.216 321.47 409.166C320.967 409.002 320.468 408.823 319.973 408.633C319.761 408.551 319.549 408.469 319.339 408.383C318.769 408.148 318.203 407.9 317.646 407.631C317.484 407.552 317.326 407.466 317.164 407.384C316.708 407.153 316.257 406.909 315.812 406.655C315.638 406.556 315.461 406.457 315.289 406.354C314.748 406.031 314.217 405.689 313.695 405.33C305.691 399.834 300.429 390.621 300.429 380.2C300.429 363.4 314.097 349.733 330.897 349.733C347.697 349.733 361.364 363.401 361.364 380.2C361.367 390.624 356.105 399.836 348.1 405.332ZM372.192 430.952V424.899C384.232 413.768 391.789 397.853 391.789 380.202C391.789 346.628 364.474 319.313 330.9 319.313C297.326 319.313 270.01 346.628 270.01 380.202C270.01 397.854 277.567 413.767 289.607 424.899V430.952H103.987V30.422H408.014V430.952H372.192Z" fill="#2D3E5B"/>
<path d="M238.333 364.989H135.579V395.411H238.333V364.989Z" fill="#2D3E5B"/>
<path d="M376.417 268.613H135.579V299.035H376.417V268.613Z" fill="#2D3E5B"/>
<path d="M376.417 217.911H135.579V248.333H376.417V217.911Z" fill="#2D3E5B"/>
<path d="M376.417 167.208H135.579V197.63H376.417V167.208Z" fill="#2D3E5B"/>
<path d="M376.417 116.505H135.579V146.927H376.417V116.505Z" fill="#2D3E5B"/>
<path d="M319.124 65.798H192.884V96.22H319.124V65.798Z" fill="#2D3E5B"/>
</svg>
