<svg width="799" height="793" viewBox="0 0 799 793" fill="none" xmlns="http://www.w3.org/2000/svg">
<path d="M24.4 402.65L21.675 401.35C15.675 397.975 11 393.025 7.74998 386.625C3.04998 378.025 0.974976 369.95 0.974976 361.625L1.62498 357.325C1.62498 350.675 3.32498 344.7 6.32498 338.975L9.04998 334.025C10.35 331.3 12.3 328.95 14 326.725C16.075 324.375 16.35 321.375 15.7 318.65L14 313.3C12.05 306.65 10.75 300.025 10.75 293.375L9.69998 289.35C9.69998 281.925 11.65 274.625 16.35 269.3L19.725 265C22.075 261.625 25.725 259.65 29.75 258.35C33 257.3 35.35 253.925 35.75 250.025L36.4 238.7C36.4 229.725 40.7 221.375 47.35 215.25L55.425 209.25C57 207.675 58.675 206 59.975 203.25C61.675 201.3 62.05 198.55 61.675 196.6C61.025 193.35 61.675 192.3 63.375 191.9C68.725 193.975 72.1 193.325 74.45 190.6L78.75 185L90.725 171.6C94.1 168.35 95.425 162.225 93.325 157.675L89.425 148.95C88.775 147 89.425 144.65 91.125 144C95.425 144 98.425 145.575 99.725 148.3L101.025 150.65C103.1 154.675 107.8 156.65 111.05 154.95C118.35 152.35 124.45 151.7 130.05 151.7H140.725C148.025 151.7 154 146.625 155.45 138.95C156.75 129.7 160 122.275 164.7 117.325C169.775 111.6 175.375 107.3 182.025 103.925C190.75 99.375 196.1 92.6 197.775 84C200.125 73.325 205.725 65.65 213.4 60.7L238.8 46.375L246.1 41.95C250.4 39.35 254.425 35.95 257.825 31.925L264.475 23.975C267.725 20.6 271.125 18.375 275.15 17.325C278.4 16.275 283.1 15.625 287.125 16.025L300.4 16.925C307.05 16.925 312.375 18.625 317.725 20.95L321.1 22.65C324.475 23.95 327.75 23.3 329.425 20.95L332.425 19.25L346.75 4.275C350.125 0.899996 354.05 -0.425004 358.475 0.249996C362.775 0.899996 367.075 2.6 371.1 4.675C377.1 7.925 382.05 9.225 387.775 9.225H391.15C398.45 9.225 405.725 10.275 413.15 11.95L418.1 13.25C423.05 14.55 428.125 12.6 431.375 8.55C432.425 6.85 434.75 6.6 436.075 7.9C437.125 8.55 437.375 9.2 437.775 10.25C438.425 16.9 442.475 21.975 447.8 23.525L453.15 25.225C458.75 26.925 463.825 30.575 467.075 35.25C470.45 40.2 474.5 45.275 479.05 48.525L482.425 51.9C485.8 55.275 490.375 56.6 495.05 56.2H514.7C522.775 56.2 530.45 57.625 538.15 60.9C545.45 64.275 553.125 64.925 560.025 62.2C567.45 59.975 575.125 58.95 582.8 59.975L597.125 62.2C603.775 62.975 610.4 66.225 614.45 71.325L616.15 72.9C619.4 76.275 622.8 80.575 626.05 85.275C628.125 89.575 632.825 91.925 637.375 91.925H658.075C663.15 91.925 668.1 92.975 672.15 95.3C676.45 98.55 680.1 101.95 683.475 105.325L686.725 109.625C690.75 114.325 692.725 120.575 692.45 127.325C692.45 132.675 696.475 137.225 701.7 137.225L708.475 138C713.175 138 717.075 141.25 719.425 145.55L722.8 152.325L731.4 171.6C732.825 174.975 733.1 178.25 732.825 180.975C732.825 184.225 733.725 186.975 736.075 188.275L739.45 190.625C743.75 194 746.1 198.95 745.45 204.7L743.1 220.325L742.45 226.975C741.8 230.35 743.35 234.65 746.475 237C751.425 240.25 753.775 244.675 754.025 249.625V256.275C754.025 259.65 753.375 263.7 750.775 266.3C748.7 269.025 747.4 272.3 747.4 276.325L748.45 284C748.45 289.35 751.7 294.025 755.1 297.275C759.8 300.65 762.4 306 763.175 311.35C764.475 319.675 764.75 326.325 764.75 332.975V340.65C764.75 343.375 764.75 346 765.8 348.6C766.45 350.95 768.15 353.3 770.1 354.725L776.75 359.675C783.525 363.975 788.2 369.7 790.825 377.375C794.2 384.675 795.125 392.35 795.125 400.025V402.625C795.125 408.625 794.475 415 792.525 420.6C790.825 426.725 791.225 432.325 793.425 437.275C796.15 441.975 797.85 447.3 798.5 453.025C799.8 459.675 799.15 466.3 796.8 471.65L796.15 474C794.45 478.025 791.85 481.675 788.475 484.675C785.1 488.05 781.825 490.025 779.875 492.35C777.8 494.3 776.5 497.7 777.525 500.675L778.425 505.375C780.125 512.025 780.125 518.65 778.425 524.65V527.375C777.125 532.325 775.175 536.625 773.075 540.65C770.725 544.95 767.475 548.325 763.175 550.675L758.1 553.925C755.75 555.35 754.075 558.35 754.075 561.35C754.075 564.6 752.775 568 750.825 569.95L745.75 576.725C742.5 581.025 738.2 584.675 733.5 586.625C728.8 590 724.775 593.4 721.775 596.65C718.4 600.675 715.775 605.375 714.475 610.05C713.175 616.05 708.475 619.3 703.4 619.3H685.425C680.725 619.3 676.45 622.675 674.475 626.725C672.125 631.925 669.775 635.7 666.8 638.975C663.425 642.35 661.45 646.4 660.025 650.95C659.375 654.975 656.125 657.725 652.725 656.3C648.425 654.35 644.125 656.3 642.05 659.675C638.15 666.325 634.1 671.4 629.8 675.7L627.45 677.65C623.025 681.025 617.425 683.65 612.35 683.65C606.35 683.65 603.375 686.375 602.45 690.3C601.4 693.675 600.75 697.975 600.375 701.75C599.725 705.65 598.425 709.3 597.125 712.7L595.425 714.65C592.05 719.725 589.425 724.675 586.05 728.975L584.75 731.05C580.45 736.65 574.725 741.075 568.075 742.65C560 745.375 553.1 746.025 546.075 746.025H541.375C538.125 746.025 534.725 747.975 532.4 751.375L530.45 754.75L528.375 758.65L524.075 766.075C520.7 772.075 515.75 775.975 509.1 778.05C502.45 779.75 494.775 780.4 487.75 780L482.4 779.35C477.7 779.35 473.425 778.05 469.125 775.975C465.75 774.675 461.05 775.975 459.1 779.35C455.725 784.05 451.675 786.65 447.375 788.075L437.35 791.325C430.7 793.025 423.425 793.025 416.375 791.325L411.025 789.625C407.775 789.625 404.375 788.05 401.65 786.375C398.4 784.675 395 784.025 391.75 784.3L387.325 785.075C380.675 785.725 374.7 785.075 368.7 783.375L359.725 781.3C355.7 780 352.05 777.4 349.7 773.625C348 770.375 344.35 767.625 339.675 766.975H329C322.35 766.075 316.375 763.725 312.325 758.65L299.05 746.025L294.35 742L287.05 736.65L282.75 733.4C277.675 730.025 271.675 727.4 265.3 726.75L245.375 723.375C243.3 723.375 242 722.725 240.025 722.325L232.35 720.625C228.975 719.975 225.7 717.375 223.375 713.975C221.425 710.725 217.65 709.275 214.4 710.725C207.75 713.325 202.425 713.975 197.075 715.025H192.375C183.65 715.675 175.7 714.375 167.625 710.725C159.675 707.35 154.35 702.4 149.4 696C145.375 690.275 139.375 685.975 131.95 684.675L122.7 682.725C116.05 681.3 109.3 678.7 103.3 674.65C96.65 669.95 93.275 665.675 90.675 660.325C88.075 655.375 86.375 649.65 85.975 643.65V641.05C85.325 634.275 80.625 628.3 74.375 626.725C66.7 624.375 60.975 621 56.025 616.7C51.325 612.275 48.6 606.025 48.6 599.375L49.375 584.65C49.375 578.925 47.675 573.975 43.65 570.325C39.625 566.3 37 561.35 37 556L35.95 544.025C35.3 535.3 33.6 526.7 31.65 517.975C29.7 510.3 32.7 502.6 38.95 498.975L41.3 497.275C44.675 494.925 46 490.625 44.025 486.6L41.3 483.35C38.05 479.975 34.65 477.625 31.275 476.7C28.675 475.925 28.025 473.325 28.025 471.625L31.275 467.6C33.35 465.25 32.975 461.6 31.275 459.65C28.675 456.925 27.375 453.65 26.975 450.275L26.325 426.975C26.325 422.275 26.975 417.6 28.275 413.05C29.7 409.025 28.275 404.325 24.375 402.375L24.4 402.65ZM354.35 358.625C356.7 356.275 356.3 351.975 354.35 350.3C350.975 347.7 348.625 344.7 346.675 341.325L343.3 335.975C341.075 331.675 338.1 328.025 334.7 324.65L334.05 324C330.675 321.4 328.325 318 326.375 313.975C324.675 310.725 324.675 307.325 326.375 303.95L328.325 300.7C330.4 297.325 331.7 292.625 331.7 288.725V287.3C331.7 284.05 330.4 280.65 328.325 277.4C327.025 274.675 325.725 271.4 325.075 268.025V266.075C324.025 262.05 325.075 257.75 327.675 254.35C330.4 250.05 332.375 246.025 333.4 241.075V240.3C334.7 237.05 334.05 232.75 331.975 229.35C330.025 225.975 329.375 222.7 330.675 218.675L333.025 212.025C334.975 206.025 338.1 200.7 342 196L346.7 191.05L350.075 187.025L352.025 185.075C353.975 183 354.375 179.725 352.675 177C350.975 173.625 350.075 170.35 350.725 166.975L351.375 162.275C352.425 155.625 354.75 149 359.05 143.65L360.35 142.35C365.3 135.7 371.675 131.275 378.975 128.95L388.1 125.7C392 124.4 394.75 119.975 394.75 115.675C394.75 110.325 396.45 105.65 399.425 101.35L401 99.65C404.375 94.05 408.425 88.325 411.025 82.325L413.375 78.025C414.025 76.975 414.425 75.675 414.425 74.65C414.425 69.05 411.05 63.975 405.7 63.7L391.125 62.65C382.8 62 374.45 62.65 366.375 62.65L338.125 66.025C333.7 66.025 330.45 69.275 330.05 73.975C330.05 78.675 326.675 82.7 322.75 84L310.775 87.25L307.4 88.3L297.375 91.675C290.075 94.025 284.1 99.35 280.7 106.65L278.1 110.95C274.725 118.375 269.125 124.35 262.075 128.65C255.425 132.95 252.05 139.975 251.4 147.925V151.3C250.75 157.95 248.675 164.575 244.75 169.275L243.05 172C240.325 175.25 239.675 179.675 241.35 183.325C243.05 187.225 244.075 191.65 243.7 195.95V213.65C243.7 218.35 240.325 222.25 237.05 223.55C232.35 225.25 229.375 228.9 228.075 233.575L226.375 240.225C225.075 247 227.425 253.625 233.025 257.675C238.375 261.575 241.75 267.575 243.05 275V281C244.1 287.65 247.75 294.275 253.725 297.675C259.725 301.7 264.4 307.7 267 314.35L268.7 319.7C271.425 327 277.425 331.3 284.075 331.95H286.025C292.025 331.95 297.35 335.325 300.75 340.675C304 346.025 309.35 349.65 315.325 350.7L324.7 353.3C330.425 355 335.775 358 340.075 362.275L340.725 363.05C344.1 365.65 349.45 365.275 352.45 361.625L354.8 359.025L354.35 358.625ZM392.35 328.025C395.6 329.975 399 328.925 400.3 325.95L401.35 324.375C403.7 319.675 406.7 315 409.95 310.975L416.725 300.95C417.625 300.95 418.025 300.3 418.3 299.65L426.375 288.975C429.75 285.725 433.675 283.375 438.35 283.375C442.65 283.375 446.425 281.025 448.375 276.725C449.675 272.025 451.625 267.6 455.675 263.975L457.375 262.025C460.75 258.65 464.025 256.95 467.4 255.375C471.7 254.725 475.725 253.95 479.775 253.95H489.675C493.7 253.95 497.1 252.375 499.05 249C501 245.625 504 243.4 507.375 241.7L510.75 240.275C516.1 238.05 522.075 236.375 528.075 235.725L534.725 235.075C538.75 235.075 543.05 235.075 547.1 237.3C550.35 239.65 554.775 239.375 558.05 236.65L560.4 235.35C565.35 231.975 571.075 229.35 577.075 228.7H577.725C584.375 227.4 590.35 227.4 597.125 227.65H600.375C607.025 228.7 612.75 231.025 617.05 235.975L618.1 237.275C621.475 240.65 626.7 243.4 631.375 243.4H637.1C638.8 243.4 640.35 242.625 641.4 241.05C642.45 240 644.125 238.975 645.7 238.975H649.075C653.775 238.975 658.05 240.275 662.35 241.7L668.075 244.05C673.425 245.625 679.025 247.3 684.75 247.95H688.775C691.375 247.95 693.075 246.375 693.075 244.05C693.075 240.675 692.425 237.275 690.725 234.675L688.375 229.325C685.775 225.025 683.675 220.35 681.725 216.05L681.075 214.35C679.375 210.975 679.375 207.7 681.075 204.325V202.625C681.725 200.025 680.425 197.025 677.7 195.975H675.1C669.75 194.275 665.075 191.275 661.7 187L658.45 183.625C655.075 180.375 653.1 175.3 651.675 170.35C650.1 166.05 646.475 162.675 641.775 162.675H627.7C622.75 162.025 618.325 159.3 615.325 155.375L614.025 153.675C611.675 150.3 609.725 146.375 608.425 142.35C606.725 138.975 603.075 137 599.7 138.05L595.675 139.35C589.025 141.7 582.4 142.6 575.75 141.95L570.4 141.3C564.675 141.3 559.325 138.95 555.025 135.7L551.65 133.35C549.05 131.275 546.45 129.975 543.325 128.65C540.075 127.35 537.325 128 535.375 130.35L533.675 132.3C530.425 135.675 525.725 138.3 521.05 138.95L503.075 140C499.7 140 496.425 141.7 494.1 144.025C491.375 146.375 488.375 147.925 484.975 148.575H484.325C481.075 148.575 477.675 150.925 474.425 153.275V153.925C471.05 157.3 466.75 159 462.325 159L461.025 159.65C457 159.65 453.075 159.65 449.05 160.7H445.025C439.425 161.6 435 166.3 433.7 172.3L432.4 179.975C431.35 185.325 429.025 190 425.75 194.3C422.375 198.325 418.325 200.95 413.375 200.95H407.775C404.4 201.725 401 205.375 401.65 209.275C402.425 215 401.65 219.95 400.75 225.025L399.45 230.625C398.025 235.7 394.75 239.6 390.325 241.3L388.375 242.35H387.725C385.775 243.65 384.35 246.65 386.025 249C388.1 252.375 388.75 255.65 388.375 259.025L387.325 269.7C387.325 273.6 385.75 277.375 384.075 280.65C382 284.025 382 287.3 383.425 290.675L386.675 297.975C388.375 301.35 388.75 304.75 387.725 308.65C386.675 312.025 386.025 315.3 386.425 318.675C386.425 322.05 388.375 325.325 391.125 326.75L392.35 328.025ZM655.65 569.05C659.025 572.3 663.975 573.6 668.025 571L674.675 566.7C678.05 564.35 680.675 560.975 681.975 556.675V556.025L685.35 546L687.3 542.625L688.725 539.375L690.025 537.025C691.325 534.3 693.275 532.325 696.675 531.3L697.975 530.65C700.7 530 702.4 527.4 702.4 524.65C702.4 521.4 703.975 518.65 705.65 516.325L708.375 513.975L715.025 505.375V504.725C716.975 502 718.275 499 719.05 495.6C719.7 492.35 719.05 488.95 717.625 485.7L716.975 484.275C715.675 481.025 715.025 478.675 714.625 475.675L713.725 466.3L712.675 456.275C712.675 453.025 713.975 449.625 716.05 446.375C718.275 443.65 719.95 440.25 721.4 437V435.7L722.05 435.05C722.7 431.675 721 428.275 718.025 428.275C714.65 426.7 711.375 423.975 710.35 419.95L709.3 418C707.725 412 706.7 406.025 706.7 400.025L707.35 383.35V382.3C707.35 376.7 702.65 372.275 697.325 372.275H696.675C690.025 372.275 684.7 370.325 680 365.625L677.4 362.25L670.625 354.7L662.025 344.675C658.65 339.975 655.375 335.95 650.95 331.925C647.7 328.675 642.625 325.275 637.675 324.625L631.025 323.575C627.65 322.925 623.35 321.35 619.7 319.025C616.975 316.95 613.05 317.6 610.325 320.325L606.025 325.025L603.95 326.325C601.6 326.975 599.4 325.675 598.35 322.95C597.05 319.05 597.05 314.35 599 310.325V308.375C599 306.025 597.05 304.35 594.975 305H589.625C583.625 305 577.65 304.35 572.05 301.75L568.675 300.325C565.3 298.625 561.375 297.725 557.725 297.725C554.35 297.725 550.95 298.375 547.7 300.325L546.4 301.375C542.375 303.975 537.675 305.4 533 305.675H522.05C516.975 305.675 512.025 307.375 508.65 310.1C504.35 312.7 499.675 314.4 494.725 315.3L485.75 316.725C481.725 317.625 477.425 319.325 473.65 322.325C470.4 325.7 465.7 327.675 461.4 328.975L459.7 329.75C454.35 331.325 449.675 334.7 446.425 339.65L442.4 343.675C440.05 347.05 440.05 350.975 442.4 354.35C444.35 357.725 448.4 358.65 452.425 357.725L457.375 355.65C459.975 354.75 463.1 355.65 465.325 356.95C467.4 358.65 470.4 359.675 473.4 359.3L481.725 358.4C486.425 358.4 491.1 358.4 495.65 359.7C500.725 361.4 505.025 363.075 509.05 366.35C513.075 369.725 517.375 371.05 522.325 371.7C527.4 372.35 532.35 373.4 537.05 375.075L540.3 375.725C543.675 376.775 546.425 378.975 548.375 382.375C550.075 385.1 551.625 389.025 551.625 392.4V393.45C551.625 397.35 555 400.1 558.4 400.1H560.35C565.7 400.1 571.425 400.75 577.025 402.45L579.375 403.35C582.75 404.775 586.025 406.725 588.35 410.125C591.075 413.375 592.65 416.775 593.7 420.025L594.75 424.725C595.65 429.8 596.05 434.75 596.05 440.1V441.8C596.05 445.05 598.4 448.45 602.05 449.75C605.425 450.4 609.35 451.825 613.125 453.775L614.7 454.425C619.125 457.025 623.425 460.425 626.675 464.45L628.375 466.8C632.8 471.75 635.025 478.125 635.025 484.375V486.725C635.025 491.8 634.125 496.75 632.425 501.45C631.125 505.475 632.425 510.175 636.725 511.475L639.075 513.175C644.15 515.125 648.45 518.775 651.7 523.075C655.075 528.15 656.4 533.75 656.4 539.75V549.775C655.75 553.15 654.825 555.775 653.15 558.1C651.475 560.425 651.45 563.825 653.15 566.175L655.1 569.425L655.65 569.05ZM442.35 398.35H441.7C440.275 398.35 439.625 400.05 440 401.725L441.3 408.375C442.6 413.725 443.25 419.05 444.025 424.4C444.675 429.75 447.275 434.3 451.325 437.675H452.625C457.7 441.7 460.7 447.7 460.95 453.7V470.375C460.3 473.625 460.95 477.025 463.025 479.75L464.6 481.325C467.975 485.35 469.3 490.05 469.675 494.725L470.575 513.075C470.575 517.375 467.975 521.025 463.925 521.675L460.675 522.325C458.325 522.325 457.3 525.05 457.3 527.4C457.3 530 458.35 533 459.25 535.725V536.375C460.3 539.625 460.675 543.025 460.3 546.4L459 555.375C457.7 562.025 455.625 568 452.35 574L450 578.025C448.3 581.275 445.975 583.375 443.225 584.675C439.975 585.975 437.625 588.7 436.575 591.975L433.975 603.95C432.275 610.725 429.275 617.35 425.25 624H424.6C420.575 629.35 415.625 634.025 409.625 637.275L405.6 640L395.575 644.95C392.325 646.375 390.225 649.375 389.575 653.025L388 663.975C386.95 670.625 384.625 676.35 379.925 680.65L375.625 685.725L370.55 690.675L365.6 696.025C361.575 700.725 355.575 702.675 348.925 701.75L336.95 699.4L325.875 697.975H322.875C321.575 699.4 321.3 701.35 322.225 703.325C324.575 707.35 328.225 710.1 332.25 710.1L339.55 711.4C342.925 711.4 346.975 713.1 350.225 714.65C353.6 717 356.875 718.675 360.9 719.725H361.55C365.975 721.425 370.525 721.675 374.95 721.425L379.9 720.65C385.625 720 390.975 720.65 395.525 722.725L399.55 724.025C401.25 724.675 403.85 724.025 405.55 722.325C407.625 720.375 409.575 719.075 412.2 718.025L414.925 717.375C419.225 716.075 423.525 715.3 428.2 715.3H430.925C434.825 715.3 438.6 716.075 441.875 718.025L443.175 718.675C445.525 719.725 448.25 718.675 449.95 716.725C450.85 714.375 453.2 712.025 455.55 710.075L463.875 704.35L469.225 700.975L471.95 699.4C475.2 697.05 479.9 696.025 483.925 696.025L495.9 694.975C500.6 694.325 504.625 691.075 505.925 686.375C507.225 681.3 509.175 676.35 512.575 672.05C515.95 667.625 519.225 663.975 522.6 660.725C526.9 657.35 531.2 655.65 535.875 655.375H538.6C543.95 654.325 547.85 649.375 547.575 644.05V621.65C548.225 618.4 549.525 613.975 551.475 610.7L558.25 600.675L560.85 597.3C562.925 595.6 564.225 593.4 566.575 590.65L569.825 586.35C571.9 582.975 571.9 578.675 569.175 575.675C565.925 572.3 564.225 567.6 563.575 563.05V561.625C562.925 556.275 562.925 550.675 564.475 544.95V543.375C566.175 538.95 568.5 534.65 571.25 530.625C573.85 527.375 573.475 522.675 570.2 519.95L564.475 515C559.775 510.975 557.175 504.975 556.525 498.975L555.875 492.325C555.875 490.25 555.875 488.025 555.225 485.675L554.575 480.6C553.8 475 550.55 470.575 545.85 467.325L543.5 466.675C540.125 464.6 536.85 461.6 534.125 457.7C531.525 454.325 530.225 449.625 529.175 444.95L528.125 439.35C528.125 437.275 526.825 435.975 524.875 435.05L508.85 429.975C505.475 429.325 502.2 426.725 499.875 424.375H499.225C497.15 421.65 493.875 421.65 491.8 423.6L488.55 426.975C487.9 428.025 487.125 428.275 486.2 428.025C484.125 428.025 482.825 426.325 483.475 424.65C484.125 419.3 482.175 413.975 477.875 410.725L473.45 407.35L463.55 400.7C460.825 399.65 456.775 400.7 455.475 403.95L454.175 406.025C454.175 406.675 453.125 406.925 452.875 407.325C451.45 407.325 449.5 407.325 449.5 405.625L448.45 403.925C447.55 401.975 445.2 400.675 443.1 400.025L442.35 398.35ZM402.375 431.675L400.675 429.975C398.975 428.675 397.3 428.925 395.6 430.625C393.25 434.65 391.3 438.95 390.25 443.375V444.025C389.35 448.325 385.3 451.325 381.275 450.675H377.375C372.675 450.675 369.05 454.7 369.05 459.275C369.05 465.275 366.975 471.375 363.325 475.95L361.375 478.025C358 482.325 353.05 485.325 347.975 487L345.375 487.65C342 488.7 339.375 491.025 338.725 494.95C338.725 498.325 336.65 501.725 334.025 504.325L330.65 506.925C326.625 511.35 320.625 513.7 314.625 514.35L297.95 516.05C292.6 516.05 288.05 519.3 284.675 524.375C281.3 529.325 276.35 532.7 271.4 533.35L263.975 534C258.625 534.65 253.025 534.65 247.3 533.35L244.05 532.7L234.925 530.35C231.675 529.3 228.925 530.35 226.975 532.7L223.6 537C219.3 541.95 213.05 544.3 206.925 543.65L185.3 541.05C181.925 541.05 179.3 539.35 176.325 537.675C172.95 535.725 170.6 533.375 168.25 531.025L159.925 521C159.025 520.35 157.325 519.95 155.625 520.35L150.925 522.3L132.3 527C128.925 528.05 124.625 527 121.35 525.05C117.975 522.325 113.925 521.675 109.9 521.675H105.6C101.575 522.725 98.95 527.025 100.25 531.05L101.55 537.7C102.6 541.075 102.325 545 100.65 548.375C98.975 551.75 99.35 555.025 101.55 558.4L103.625 561C106.225 565.025 110.275 568.425 113.65 571.675C116.9 575.05 120.3 578.325 122.9 582.75L127.975 591.725C130.575 596.425 134.625 599.025 139.95 599.025C144.9 599.025 149.975 600.725 153.875 603.975L163.9 613.35C166.625 615.7 170.55 616.075 173.275 614L174.975 613.35C176.925 613.35 178.225 614.65 178.225 616.725V618.425C178.225 622.725 181.6 626.75 185.9 628.325L200.875 631.7C206.225 633.4 211.55 635.075 216.625 638.35H219.225C221.95 638.35 224.3 636 223.925 633V621.4C223.925 618.025 225.225 614.625 227.95 613.325L229.65 612.675C231.225 613.325 232.9 614.625 232.25 616.05V621.65C232.25 625.95 233.55 629.975 236.55 632.975C239.925 636.35 244.225 637 247.875 635.7C251.9 634 255.95 633.625 260.25 634L272.625 634.65C278.625 635.3 284.225 634.65 289.3 632.3C295.3 630.35 300.25 627.6 304.925 623.975L306.875 622.675L316.9 613.7C320.275 610.325 324.575 608.625 328.625 608.625H341.9C348.55 607.975 354.65 601.975 355.3 595.35L356.6 588.7C356.6 584.275 358.55 580.375 361.55 576.975C364.925 573.6 368.2 571.625 371.575 570.325L375.6 568.625C381.2 566.275 385.625 561.325 387.575 555.35L389.525 547.275C391.225 540.625 394.6 534 399.55 529.7L400.2 528.925C404.225 525.675 404.9 519.025 402.275 514.35L401.225 512C398.875 508.625 398.5 503.675 400.175 499.375C401.875 494.675 403.55 490.65 406.175 486.625L409.55 481.925C410.85 479.325 410.85 475.275 408.9 472.95C406.825 470.35 405.525 466.95 405.525 463.7L404.875 459V447.675C405.525 444.3 404.875 440 403.825 436.6L402.525 432.7L402.375 431.675ZM354.725 406.275V405.375C354.725 402 352.65 400.025 350.025 400.025H341.3C338.05 400.675 334.65 400.675 331.925 400.025H316.95C309.275 400.025 301.975 398.6 294.675 396.65L286.6 394.7L279.95 392.625L264.975 387.675C256.9 385.325 250.9 380 247.275 372.7L245.575 369.325C243.225 364.375 238.275 361.65 233.325 362.675C227.6 362.675 222 362.675 216.65 360.075L212.625 358.375C204.95 355 199.35 348.35 199.35 339.375L197.925 330.4C197.025 325.7 194.025 321.425 189.975 319.725C185.275 317.65 181 315.025 176.575 312.05L175 311C169.925 306.975 165.625 301.75 163.275 295.375L162.625 293.425C160.925 288.075 160.675 282.35 161.975 276.75L162.625 274.675C163.925 270.375 164.325 266.075 164.325 261.4C164.325 257.375 162.625 253.325 159.625 250.325L154.925 246.025C149.575 241.725 146.325 235.35 145.95 228.325C145.3 221.025 145.3 214 146.6 206.975V205.025C146.6 201 143.225 198.375 139.95 198.375H138.9C134.6 198.375 130.95 200.975 128.875 205.025C127.3 209.725 124.575 213.35 121.575 217L120.275 218.7L110.25 228.725C106.875 231.975 104.9 237.05 104.25 242C103.6 247.075 102.3 252.025 100.225 256.725L99.575 258.425C97.875 262.325 95.275 266.1 91.9 268.45C88.65 271.05 86.3 275.1 86.3 279L85.65 294.375C85.65 301.025 84.6 307.775 82.275 314.425L81.625 317.025C79.925 321.45 81.625 326 85.65 328.1L99.575 334.1L100.875 334.75C101.925 334.75 102.3 335.4 102.575 336.45C103.625 337.75 102.575 339.7 101.525 339.7L98.275 341.4C96.325 342.05 94.9 344.125 94.25 346.475L93.6 349.725V350.375L90.225 369.125C89.575 371.725 89.575 374.725 89.575 377.725C89.575 380.45 91.275 382.8 93.6 383.725L100.9 387.1C104.275 389.05 108.325 391.4 110.925 393.75L114.3 396.475C115.2 397.775 116.9 399.075 118.2 399.725L119.625 401.025C121.975 403.1 123.525 405.725 124.325 408.7L127.575 423.675C127.575 427.7 130.95 431.1 134.225 432L139.575 433.7C139.575 433.7 140.625 433.7 141.275 434.35L147.925 436.425C153.275 438.125 157.95 441.125 162 445.025C166.025 448.4 169.95 452.7 173.325 457.4L174.625 458.7C177.35 462.075 181.275 463.775 185.3 462.725C189.325 461.675 193.625 461.425 197.925 461.425H203C206.25 461.425 210.675 462.325 214.325 464.675C217.575 466.75 222 468.05 225.925 469.75H226.975C231 471.45 235.3 470.65 238.7 468.45C241.95 465.725 246.375 464.425 250.675 464.425L266.3 465.325C269.675 465.325 272.95 464.675 274.625 462.075H275.275L281 456.725L282.7 455.025C285.3 451.775 289.35 450.325 293.25 450.075H308.35C312.25 450.075 316.025 446.7 317.6 443.425C319.3 440.05 322.675 437.3 326.575 436.65L333.35 435.35C335.95 435.35 338.3 433 339.35 430C340.25 426.75 341.95 424 344.3 422.05L349.65 416.7C353.025 413.325 354.725 410.05 355.375 406.025L354.725 406.275Z" fill="#2D3E5B"/>
</svg>
