<svg width="800" height="800" viewBox="0 0 800 800" fill="none" xmlns="http://www.w3.org/2000/svg">
<path d="M536.725 597.675L446.85 684.5C431.25 700.125 409.75 706.625 386.05 706.625C362.35 706.625 340.875 700.125 325.25 684.5L180.85 539.2C165.35 523.575 157.425 500.775 157.425 477.075C157.425 453.275 165.35 431.775 180.85 416.275L324.85 270.175C340.35 254.7 362.35 248.7 386.05 248.7C409.75 248.7 431.25 255.2 446.85 270.825L536.725 357.65C553.9 374.85 582.3 374.225 600.125 356.35C617.825 338.525 618.5 310.15 601.3 292.95L514.475 205.175C491.95 182.9 463.675 167.55 432.95 160.5L515.125 77.175C532.325 60 531.8 31.6 513.95 13.775C496.1 -4.04999 467.725 -4.59999 450.55 12.475L113.825 349.2C81.15 382 64.1 427.025 64.1 477.025C64.1 526.925 81.175 573.525 113.825 606.225L258.75 751.525C291.425 784.2 336.625 799.95 386.625 799.95C436.5 799.95 481.65 782.875 514.35 750.225L601.325 662.2C618.525 645.125 617.85 616.775 600.025 598.925C582.2 581.075 553.8 580.425 536.75 597.625L536.725 597.675ZM693.725 433.725H355.45C332.15 433.725 313.15 453.75 313.15 478.5C313.15 503.275 332.15 523.425 355.45 523.425H693.725C717.05 523.425 736.05 503.25 736.05 478.5C736.05 453.775 717.05 433.725 693.725 433.725Z" fill="#2D3E5B"/>
</svg>
